<?xml version="1.0" encoding="utf-8"?>
<!-- Generator: Adobe Illustrator 22.1.0, SVG Export Plug-In . SVG Version: 6.00 Build 0)  -->
<svg version="1.1" id="Layer_1" xmlns="http://www.w3.org/2000/svg" xmlns:xlink="http://www.w3.org/1999/xlink" x="0px" y="0px"
	 viewBox="0 0 400 240" style="enable-background:new 0 0 400 240;" xml:space="preserve">
<style type="text/css">
	.st0{stroke:#000000;stroke-miterlimit:10;}
	.st1{fill:#FFFFFF;}
</style>
<g>
	<path class="st0" d="M190.5,143.8c0,0-155.7-87.2-186.6,0H190.5z"/>
	<polygon class="st1" points="21,144.4 33.6,128.8 32.8,144.4 	"/>
	<polygon class="st1" points="44.3,144.4 53.4,130.7 54.2,144.4 	"/>
	<polygon class="st1" points="66.4,144.4 73.4,135.4 75.4,144.4 	"/>
	<polygon class="st1" points="104.9,144.4 109.2,136.7 109.2,144.4 	"/>
	<polygon class="st1" points="128.6,144.4 132.2,137.7 132.2,144.4 	"/>
</g>
<g>
	<path class="st0" d="M209,143.8c0,0,155.7-87.2,186.6,0H209z"/>
	<polygon class="st1" points="378.5,144.4 365.9,128.8 366.7,144.4 	"/>
	<polygon class="st1" points="355.2,144.4 346.1,130.7 345.3,144.4 	"/>
	<polygon class="st1" points="333.1,144.4 326.1,135.4 324.1,144.4 	"/>
	<polygon class="st1" points="294.6,144.4 290.3,136.7 290.3,144.4 	"/>
	<polygon class="st1" points="270.9,144.4 267.3,137.7 267.3,144.4 	"/>
</g>
<g>
	<path class="st0" d="M196.9,143.3c0,0-48.4-171.7-132-132L196.9,143.3z"/>
	<polygon class="st1" points="76.6,24 96.6,21.8 84.9,32.3 	"/>
	<polygon class="st1" points="93,40.4 109.2,37.1 100.1,47.4 	"/>
	<polygon class="st1" points="108.7,56 120,54.7 115,62.4 	"/>
	<polygon class="st1" points="135.9,83.3 144.4,80.9 139,86.3 	"/>
	<polygon class="st1" points="152.7,100 159.9,97.9 155.2,102.6 	"/>
</g>
<g>
	<path class="st0" d="M201.3,143c0,0,48.4-171.7,132-132L201.3,143z"/>
	<polygon class="st1" points="321.5,23.6 301.6,21.4 313.3,31.9 	"/>
	<polygon class="st1" points="305.1,40 289,36.7 298.1,47 	"/>
	<polygon class="st1" points="289.5,55.6 278.2,54.3 283.1,62 	"/>
	<polygon class="st1" points="262.2,82.9 253.7,80.5 259.2,85.9 	"/>
	<polygon class="st1" points="245.5,99.6 238.2,97.5 242.9,102.2 	"/>
</g>
<g>
	<path d="M159.9,170.3c0.1,5-0.8,9.1-2.5,12.3c-1.7,3.2-4.1,5.6-7,7.4s-6.3,3-10,3.7s-7.5,1.1-11.4,1.3c-0.2,0.1-0.5,0.1-1,0.1
		c-1.5,4.3-3.2,8.5-5.1,12.7s-4,7.9-6.2,11.2c-2.2,3.2-4.5,5.8-7,7.6c-2.5,1.8-5,2.4-7.6,1.8h-0.2c-0.2,0-0.4,0-0.5-0.1
		c-1.9-0.6-3.1-1.5-3.5-2.8s-0.5-2.5-0.2-3.7c0.2-1.3,0.7-2.2,1.3-3c0.1-0.1,0.3-0.3,0.5-0.4s0.5-0.1,0.8,0.1
		c0.1,0.1,0.5,0.4,1.1,0.7c1.8,0.7,4.2-0.8,7.1-4.4s5.9-9.4,9.2-17.2c0.2,0,0.3,0,0.3-0.1l-0.2-0.1l0.2-1l0.2-0.7
		c-0.7,0.1-1.6,0.3-2.5,0.6c-1.9,0.6-3.4,1.4-4.5,2.3c-1.1,1-1.8,1.9-2.1,2.8c-0.1,0.2-0.2,0.3-0.3,0.3c-0.2,0-0.3-0.1-0.3-0.2
		c-0.4-0.4-0.8-0.9-1.3-1.5c-0.5-0.7-0.9-1.4-1-2.2c-0.3-1.3,0-2.7,0.9-4.1s2.8-2.3,5.6-2.8c1-0.2,2.2-0.4,3.4-0.4
		c1.2,0,2.6,0,4,0.2c1.7-4.7,3.4-9.5,5-14.2c1.7-4.8,3.4-9.8,5.4-14.9c0-0.1,0.2-0.3,0.6-0.4l8.9,0.4c0.4,0,0.5,0.2,0.4,0.6
		c-0.1,0.6-0.4,1.9-1.1,3.9c-0.7,2-1.5,4.3-2.5,7.1c-1,2.7-2.1,5.6-3.2,8.8c-1.1,3.1-2.2,6.2-3.3,9.1l1.1-0.1
		c2.1-0.1,4.1-0.5,6.2-1.3c2.1-0.8,4-1.8,5.8-3s3.3-2.7,4.6-4.3c1.3-1.6,2.2-3.3,2.6-5c0.4-1.6,0.5-3.4,0.3-5.3s-0.7-3.7-1.5-5.5
		c-0.9-1.7-2.2-3.3-3.9-4.7c-1.7-1.4-3.9-2.4-6.5-3.1c-0.4-0.1-0.9-0.3-1.7-0.4c-2.2-0.4-4.5-0.6-6.9-0.5s-4.7,0.4-7,1.1
		s-4.4,1.7-6.3,3.1c-2,1.4-3.5,3.2-4.7,5.4c-2,3.3-2.8,6-2.4,8.2c0.4,2.1,1.3,3.4,2.8,3.6c0.9,0.1,1.6,0,2.1-0.5s0.9-1,1.2-1.5
		c0.2-0.1,0.3-0.3,0.4-0.3c0.2-0.1,0.4,0,0.7,0.1c0.4,0.6,0.8,1.1,1,1.7c0.1,0.3,0.2,0.6,0.2,1c0,1.3-0.3,2.5-0.8,3.4
		c-0.4,0.8-1.2,1.6-2.4,2.2s-2.8,0.8-5,0.6c-1.7-0.3-3.2-1-4.5-2c-1.1-0.9-2.1-2.2-2.9-3.9c-0.9-1.7-1.1-4.2-0.8-7.3
		c0.3-4.3,1.9-8.1,4.8-11.2s6.4-5.5,10.5-7.2s8.6-2.7,13.4-2.9c4.8-0.3,9.3,0.3,13.5,1.5c4.2,1.3,7.7,3.4,10.7,6.3
		C157.7,161.7,159.4,165.6,159.9,170.3z"/>
	<path d="M180.1,211.7c0.7,0.7,1.7,0.4,3-0.9c1.4-1.2,2.8-2.9,4.3-4.9s2.8-4,4-6.2c1.2-2.1,2-3.8,2.5-4.9h2.3
		c-1.6,4.1-3.5,7.8-5.5,10.9c-0.9,1.3-1.9,2.6-2.9,3.9c-1.1,1.3-2.2,2.4-3.4,3.4s-2.5,1.8-3.9,2.3c-1.4,0.6-2.8,0.8-4.3,0.6
		c-0.9,0-1.7-0.2-2.5-0.7c-0.7-0.4-1.3-1-1.8-1.8s-0.9-2-1-3.6c-1,1.4-2.1,2.6-3.4,3.5c-1.1,0.8-2.5,1.5-4,2.2
		c-1.6,0.6-3.3,0.8-5.2,0.4c-1.9-0.3-3.4-1.1-4.5-2.4s-1.7-2.9-1.9-4.9c-0.2-1.9-0.1-4,0.4-6.4s1.4-4.7,2.7-7.2
		c2.5-4.9,5.4-8.4,8.8-10.8s6.9-3.4,10.6-3.4c1.5,0,2.9,0.3,4.1,1c1,0.6,1.9,1.5,2.6,2.8c0.7,1.3,1,3.2,0.8,5.7h3.3
		c0.1,0.1,0.3,0.2,0.5,0.3c0.2,0.1,0.2,0.4-0.1,0.8c-0.4,1-1.1,2.5-1.9,4.5c-0.8,2-1.6,4-2.3,6.1s-1.2,4.1-1.5,5.9
		S179.5,211.2,180.1,211.7z M179.2,190.6c-0.1-0.4-0.2-1-0.3-1.7c-0.2-0.7-0.4-1.4-0.8-2s-0.9-1.2-1.5-1.6c-0.7-0.4-1.5-0.6-2.5-0.6
		c-1.4,0.1-2.7,0.7-3.8,1.8s-2.2,2.5-3.1,4c-0.9,1.5-1.7,3.1-2.4,4.6s-1.2,2.7-1.5,3.5c-0.4,0.8-0.8,1.9-1.2,3.3s-0.8,2.7-1,4
		s-0.3,2.5-0.1,3.6c0.1,1.1,0.7,1.8,1.5,2s1.7,0,2.5-0.6c0.9-0.6,1.7-1.4,2.4-2.4s1.4-1.9,1.9-2.9s0.9-1.7,1.1-2.1
		c0.2-0.4,0.6-1.2,1.1-2.4c0.5-1.2,1-2.5,1.6-3.9s1.1-2.7,1.7-3.9c0.5-1.2,0.9-2.1,1.1-2.5v-0.1c0-0.1,0.1-0.3,0.4-0.3h2.9V190.6z"
		/>
	<path d="M215.4,194.9c-1.6,4.1-3.5,7.8-5.5,10.9c-0.9,1.3-1.9,2.6-2.9,3.9c-1.1,1.3-2.2,2.4-3.4,3.4s-2.5,1.8-3.9,2.3
		c-1.4,0.6-2.8,0.8-4.3,0.6c-0.3,0-0.6,0-0.9-0.1c-0.3-0.1-0.6-0.2-0.9-0.3c-0.3-0.1-0.7-0.3-1.1-0.6c-0.5-0.4-1-0.8-1.3-1.4
		c-0.1-0.1-0.3-0.3-0.3-0.5c-0.1-0.2-0.2-0.4-0.2-0.5c-0.1-0.1-0.1-0.3-0.1-0.3c-0.4-1.1-0.5-2.3-0.4-3.6c0.1-1.3,0.2-2.5,0.4-3.6
		c0.3-1.3,0.6-2.6,1-3.9l0.3-1.1l11.4-32.4c0-0.3,0.3-0.5,0.8-0.6h8.5c0.1,0,0.3,0,0.4,0.1c0.1,0.1,0.2,0.3,0.1,0.6
		c-0.4,1-1,2.8-1.8,5.2c-0.9,2.5-1.8,5.3-2.9,8.6s-2.3,6.7-3.5,10.3c-1.3,3.6-2.4,7-3.5,10.2l-1.8,5.1c-0.1,0.3-0.2,0.6-0.2,0.9
		c-0.1,0.3-0.1,0.6-0.2,0.9c-0.1,0.3-0.1,0.6-0.1,1v0.6c0,0.2,0,0.4,0.1,0.4c0,0.4,0.1,0.6,0.3,0.7c0.4,0.4,1,0.4,1.8,0
		s1.6-1.2,2.5-2.2s1.9-2.2,2.9-3.6s1.9-2.8,2.8-4.2c0.9-1.4,1.7-2.7,2.3-3.9c0.7-1.2,1.1-2.2,1.4-2.9H215.4z"/>
	<path d="M272,194.8c-1.6,4.1-3.5,7.8-5.5,10.9c-0.9,1.3-1.9,2.6-2.9,3.9c-1.1,1.3-2.2,2.4-3.4,3.4c-1.2,1-2.5,1.8-3.9,2.3
		c-1.4,0.6-2.8,0.8-4.3,0.6c-0.5,0-1-0.1-1.5-0.3c-0.4-0.1-0.9-0.4-1.4-0.7c-0.5-0.3-1-0.8-1.3-1.4c-0.6-0.9-0.9-2-0.9-3.2
		s0.1-2.6,0.3-4c0.2-1.5,0.6-3.1,1.1-4.9s1-3.2,1.3-4.3c0.8-2.3,1.3-4,1.6-5.3s0.3-2.2,0.3-2.8c-0.1-0.6-0.2-1-0.4-1.2
		c-0.2-0.1-0.4-0.2-0.4-0.2c-0.5-0.2-1.1,0-1.8,0.6s-1.5,1.6-2.4,2.9s-1.8,2.9-2.8,4.7c-1,1.8-2,3.9-3.2,6.1l-0.4,1
		c-0.4,0.6-0.7,1.3-1.1,2.2s-0.8,1.8-1.2,2.9c-0.1,0.4-0.3,0.7-0.4,1.1c-0.1,0.4-0.3,0.7-0.4,1.1l-1.8,5c-0.1,0.4-0.3,0.6-0.4,0.7
		c-0.1,0.1-0.3,0.1-0.4,0.2h-1.9c-1.6-0.1-2.8-0.6-3.5-1.4s-1.2-1.6-1.4-2.5s-0.3-1.7-0.2-2.5s0.2-1.4,0.4-1.8v-0.1l1.8-4.7l1.8-5.1
		c0.1-0.3,0.2-0.5,0.2-0.7c0.8-2.2,1.3-4,1.5-5.2c0.2-1.3,0.2-2.2,0.1-2.8c-0.1-0.6-0.3-1-0.6-1.2s-0.5-0.3-0.6-0.3
		c-1.5-0.4-3.4,1.4-5.9,5.2c-2.4,3.8-5.1,9-8.1,15.5c-0.5,1.4-0.8,2.8-1,4.1c-0.2,1.3-0.2,2.2-0.2,2.5s-0.1,0.5-0.2,0.7
		c-0.2,0.1-0.2,0.1-0.3,0.1c0,0-0.1-0.1-0.2-0.1h-0.2c-2.4-0.4-4.1-1.2-5.1-2.5s-1.6-2.7-1.7-4.2c-0.2-1.7,0-3.5,0.5-5.5l7.6-21.8
		c0-0.1,0.1-0.2,0.2-0.3c0.1-0.1,0.3-0.2,0.6-0.2h8.6c0.1,0,0.2,0,0.4,0.1s0.2,0.3,0.1,0.5l-3.8,10.8c1.5-2.1,3-4.2,4.6-6.2
		s3.3-3.5,5-4.4l0.4-0.2c0.4-0.1,0.7-0.3,1-0.3s0.6-0.1,0.9-0.2c1-0.2,2.1-0.2,3.3,0.1c1.5,0.4,2.5,1.1,3.1,2.1s1,2,1.2,2.8
		s0.3,1.7,0.3,2.5c0,0.9-0.1,1.8-0.3,2.7c1.4-2,2.9-3.9,4.4-5.6c1.5-1.8,3-3.1,4.5-3.9c0.1,0,0.3-0.1,0.6-0.2
		c0.4-0.1,0.7-0.3,0.9-0.3c0.3-0.1,0.5-0.1,0.8-0.2c1-0.2,2.1-0.2,3.4,0c1.5,0.4,2.5,1.1,3.1,2.2s1,2,1.2,2.8c0.3,1.3,0.4,2.6,0.2,4
		c-0.2,1.4-0.5,2.7-0.9,4c-0.7,2.1-1.6,4.4-2.5,6.8c-1,2.4-1.7,4.5-2.2,6.1c-0.1,0.3-0.2,0.8-0.3,1.4c-0.1,0.7-0.2,1.3-0.1,2
		c0.1,0.1,0.1,0.2,0.1,0.4l0.3,0.7c0.4,0.4,1.1,0.4,1.8,0c0.8-0.4,1.6-1.2,2.5-2.2s1.9-2.2,2.9-3.6s2-2.7,2.9-4.1s1.7-2.7,2.3-3.9
		c0.7-1.2,1.1-2.2,1.4-2.9h1.9V194.8z"/>
	<path d="M294.4,211.7c0.7,0.7,1.7,0.4,3-0.9c1.4-1.2,2.8-2.9,4.3-4.9s2.8-4,4-6.2c1.2-2.1,2-3.8,2.5-4.9h2.3
		c-1.6,4.1-3.5,7.8-5.5,10.9c-0.9,1.3-1.9,2.6-2.9,3.9c-1.1,1.3-2.2,2.4-3.4,3.4s-2.5,1.8-3.9,2.3c-1.4,0.6-2.8,0.8-4.3,0.6
		c-0.9,0-1.7-0.2-2.5-0.7c-0.7-0.4-1.3-1-1.8-1.8s-0.9-2-1-3.6c-1,1.4-2.1,2.6-3.4,3.5c-1.1,0.8-2.5,1.5-4,2.2s-3.3,0.8-5.2,0.4
		c-1.9-0.3-3.4-1.1-4.5-2.4s-1.7-2.9-1.9-4.9c-0.2-1.9-0.1-4,0.4-6.4s1.4-4.7,2.7-7.2c2.5-4.9,5.4-8.4,8.8-10.8s6.9-3.4,10.6-3.4
		c1.5,0,2.9,0.3,4.1,1c1,0.6,1.9,1.5,2.6,2.8s1,3.2,0.8,5.7h3.3c0.1,0.1,0.3,0.2,0.5,0.3c0.2,0.1,0.2,0.4-0.1,0.8
		c-0.4,1-1.1,2.5-1.9,4.5s-1.6,4-2.3,6.1s-1.2,4.1-1.5,5.9S293.8,211.2,294.4,211.7z M293.5,190.6c-0.1-0.4-0.2-1-0.3-1.7
		c-0.2-0.7-0.4-1.4-0.8-2s-0.9-1.2-1.5-1.6c-0.7-0.4-1.5-0.6-2.5-0.6c-1.4,0.1-2.7,0.7-3.8,1.8s-2.2,2.5-3.1,4s-1.7,3.1-2.4,4.6
		c-0.7,1.5-1.2,2.7-1.5,3.5c-0.4,0.8-0.8,1.9-1.2,3.3c-0.4,1.4-0.8,2.7-1,4s-0.3,2.5-0.1,3.6c0.1,1.1,0.7,1.8,1.5,2s1.7,0,2.5-0.6
		c0.9-0.6,1.7-1.4,2.4-2.4c0.7-1,1.4-1.9,1.9-2.9s0.9-1.7,1.1-2.1s0.6-1.2,1.1-2.4s1-2.5,1.6-3.9s1.1-2.7,1.7-3.9
		c0.5-1.2,0.9-2.1,1.1-2.5v-0.1c0-0.1,0.1-0.3,0.4-0.3h2.9V190.6z"/>
</g>
<g>
	<path d="M158.4,222.9l-1.3,2.4l-0.3-0.1c0.1-0.3,0.2-0.5,0.2-0.5c0-0.2-0.2-0.4-0.7-0.6c-1.2-0.6-2.6-0.9-3.9-0.9
		c-1.1,0-2.1,0.2-3,0.6c-0.4,0.2-0.7,0.5-1,0.8s-0.4,0.7-0.4,1.1c0,0.3,0.1,0.6,0.3,0.9s0.4,0.5,0.7,0.6c0.3,0.2,0.7,0.3,1.2,0.3
		c0.5,0.1,1.2,0.1,2.2,0.1c1.4,0,2.4,0.1,3,0.2s1.1,0.2,1.5,0.5c1.1,0.6,1.6,1.5,1.6,2.7c0,1.1-0.5,2.1-1.4,2.8
		c-1.1,0.8-2.5,1.2-4.4,1.2c-1.1,0-2-0.1-2.8-0.3c-0.8-0.2-1.7-0.6-2.9-1.2c-0.3-0.1-0.5-0.2-0.5-0.2c-0.1,0-0.2,0.1-0.4,0.3
		l-0.3-0.2l1.4-2.3l0.3,0.1c-0.1,0.2-0.2,0.4-0.2,0.5c0,0.2,0.4,0.5,1.2,0.9c0.7,0.4,1.4,0.6,2.1,0.8s1.4,0.2,2.1,0.2
		c1.6,0,2.7-0.3,3.6-1c0.5-0.5,0.8-1,0.8-1.6c0-0.8-0.5-1.4-1.4-1.7c-0.3-0.1-0.6-0.2-0.9-0.2c-0.3,0-1.2-0.1-2.7-0.1
		c-1.1,0-1.9-0.1-2.5-0.2s-1.1-0.3-1.6-0.6c-0.4-0.2-0.8-0.6-1-1s-0.4-0.9-0.4-1.5c0-0.9,0.3-1.7,1-2.3c0.5-0.5,1.2-0.8,2-1.1
		s1.8-0.4,2.9-0.4c0.8,0,1.6,0.1,2.4,0.3c0.7,0.2,1.5,0.5,2.5,0.9c0.2,0.1,0.3,0.1,0.4,0.1c0.1,0,0.3-0.1,0.5-0.4L158.4,222.9z"/>
	<path d="M167.8,226.3l-2.5,7.1c-0.1,0.3-0.2,0.6-0.2,0.7c0,0.3,0.2,0.4,0.5,0.5v0.3h-2.9v-0.3c0.3-0.1,0.5-0.2,0.5-0.5
		c0-0.2-0.1-0.4-0.2-0.7l-2.8-7.7c-0.1-0.3-0.2-0.6-0.4-0.7c-0.1-0.1-0.3-0.2-0.6-0.3v-0.3h2.7v0.3c-0.4,0.1-0.5,0.3-0.5,0.5
		c0,0.1,0,0.3,0.1,0.5l2.7,7.3l2.6-7.3c0.1-0.2,0.1-0.4,0.1-0.5c0-0.2-0.2-0.4-0.5-0.5v-0.3h2.8v0.3c-0.4,0.1-0.5,0.3-0.5,0.5
		c0,0.1,0,0.3,0.1,0.5l2.7,7.3l2.6-7.3c0.1-0.2,0.1-0.3,0.1-0.5c0-0.3-0.2-0.5-0.6-0.6v-0.3h2.7v0.3c-0.3,0.1-0.5,0.2-0.6,0.3
		c-0.1,0.1-0.3,0.4-0.4,0.7l-2.8,7.8c-0.1,0.2-0.1,0.4-0.1,0.5c0,0.3,0.2,0.5,0.5,0.5v0.3H170v-0.3c0.3-0.1,0.5-0.2,0.5-0.5
		c0-0.1-0.1-0.4-0.2-0.7L167.8,226.3z"/>
	<path d="M178,233.7v-8.3c0-0.3,0-0.4-0.1-0.5s-0.2-0.2-0.5-0.3v-0.3h2.5v0.3c-0.2,0.1-0.4,0.1-0.5,0.3c-0.1,0.1-0.1,0.3-0.1,0.5
		v8.3c0,0.3,0,0.4,0.1,0.5s0.2,0.2,0.5,0.3v0.3h-2.5v-0.3c0.2-0.1,0.4-0.1,0.5-0.3C177.9,234.2,178,234,178,233.7z"/>
	<path d="M188.2,234.8l-4.4-8.7v7.7c0,0.3,0,0.4,0.1,0.5s0.2,0.2,0.5,0.3v0.3h-2.3v-0.3c0.2-0.1,0.4-0.1,0.5-0.3s0.1-0.3,0.1-0.5
		v-8.3c0-0.3,0-0.4-0.1-0.5s-0.2-0.2-0.5-0.3v-0.3h3.2v0.3c-0.3,0.1-0.5,0.2-0.5,0.4c0,0.1,0.1,0.3,0.2,0.6l3.3,6.6l3.3-6.6
		c0.1-0.3,0.2-0.5,0.2-0.6c0-0.2-0.2-0.3-0.5-0.4v-0.3h3.2v0.3c-0.2,0.1-0.4,0.1-0.5,0.3c-0.1,0.1-0.1,0.3-0.1,0.5v8.3
		c0,0.3,0,0.4,0.1,0.5s0.2,0.2,0.5,0.3v0.3H192v-0.3c0.2-0.1,0.4-0.1,0.5-0.3c0.1-0.1,0.1-0.3,0.1-0.5V226L188.2,234.8z"/>
	<path d="M204.4,226.3l-2.5,7.1c-0.1,0.3-0.2,0.6-0.2,0.7c0,0.3,0.2,0.4,0.5,0.5v0.3h-2.9v-0.3c0.3-0.1,0.5-0.2,0.5-0.5
		c0-0.2-0.1-0.4-0.2-0.7l-2.8-7.7c-0.1-0.3-0.2-0.6-0.4-0.7c-0.1-0.1-0.3-0.2-0.6-0.3v-0.3h2.7v0.3c-0.4,0.1-0.5,0.3-0.5,0.5
		c0,0.1,0,0.3,0.1,0.5l2.7,7.3l2.6-7.3c0.1-0.2,0.1-0.4,0.1-0.5c0-0.2-0.2-0.4-0.5-0.5v-0.3h2.8v0.3c-0.4,0.1-0.5,0.3-0.5,0.5
		c0,0.1,0,0.3,0.1,0.5l2.7,7.3l2.6-7.3c0.1-0.2,0.1-0.3,0.1-0.5c0-0.3-0.2-0.5-0.6-0.6v-0.3h2.7v0.3c-0.3,0.1-0.5,0.2-0.6,0.3
		c-0.1,0.1-0.3,0.4-0.4,0.7l-2.8,7.8c-0.1,0.2-0.1,0.4-0.1,0.5c0,0.3,0.2,0.5,0.5,0.5v0.3h-2.9v-0.3c0.3-0.1,0.5-0.2,0.5-0.5
		c0-0.1-0.1-0.4-0.2-0.7L204.4,226.3z"/>
	<path d="M216.2,229.9v3.8h6.4c0.3,0,0.4,0,0.6-0.1c0.1-0.1,0.2-0.2,0.2-0.5h0.3v2.2h-0.3c-0.1-0.2-0.1-0.4-0.2-0.5
		c-0.1-0.1-0.3-0.1-0.5-0.1h-8.3v-0.3c0.2-0.1,0.4-0.1,0.5-0.3c0.1-0.1,0.1-0.3,0.1-0.5v-8.3c0-0.3,0-0.4-0.1-0.5s-0.2-0.2-0.5-0.3
		v-0.3h8.3c0.3,0,0.4,0,0.5-0.1s0.2-0.2,0.3-0.5h0.3v2.2h-0.3c-0.1-0.2-0.1-0.4-0.3-0.5c-0.1-0.1-0.3-0.1-0.5-0.1h-6.4v3.5h4
		c0.3,0,0.4,0,0.5-0.1s0.2-0.2,0.3-0.5h0.3v2.2H221c-0.1-0.2-0.1-0.4-0.3-0.5c-0.1-0.1-0.3-0.1-0.5-0.1h-4V229.9z"/>
	<path d="M232.9,231.9h-5.4l-0.8,1.7c-0.1,0.2-0.1,0.4-0.1,0.5c0,0.2,0.2,0.4,0.5,0.4v0.3h-2.6v-0.3c0.2,0,0.4-0.1,0.6-0.3
		c0.1-0.2,0.3-0.4,0.5-0.9l3.4-7.5c0.2-0.4,0.3-0.7,0.3-0.9c0-0.2-0.2-0.3-0.5-0.4v-0.3h3v0.3c-0.3,0.1-0.5,0.2-0.5,0.4
		c0,0.1,0.1,0.4,0.4,1l3.3,7.2c0.2,0.5,0.4,0.8,0.6,1c0.2,0.2,0.4,0.3,0.6,0.3v0.3h-2.7v-0.3c0.3-0.1,0.4-0.2,0.4-0.3
		c0-0.1-0.1-0.3-0.2-0.6L232.9,231.9z M232.5,230.9l-2.3-5.1l-2.3,5.1H232.5z"/>
	<path d="M239.2,230.1v3.7c0,0.3,0,0.4,0.1,0.5s0.2,0.2,0.5,0.3v0.3h-2.5v-0.3c0.2-0.1,0.4-0.1,0.5-0.3c0.1-0.1,0.1-0.3,0.1-0.5
		v-8.3c0-0.3,0-0.4-0.1-0.5s-0.2-0.2-0.5-0.3v-0.3h6.2c0.7,0,1.3,0,1.7,0.1s0.8,0.3,1.2,0.5c0.7,0.5,1.1,1.2,1.1,2.2
		c0,0.8-0.3,1.4-0.8,1.9s-1.2,0.7-2.2,0.8l2.6,4.1c0.1,0.1,0.2,0.2,0.3,0.3c0.1,0.1,0.2,0.1,0.5,0.1v0.3h-2.6v-0.3
		c0.2,0,0.4-0.1,0.4-0.2s-0.1-0.2-0.2-0.4l-2.4-3.8L239.2,230.1L239.2,230.1z M239.2,229.1h3.9c0.6,0,1.1,0,1.4-0.1
		c0.3,0,0.6-0.1,0.8-0.3c0.5-0.3,0.7-0.7,0.7-1.4c0-0.6-0.2-1.1-0.7-1.5c-0.4-0.3-1.1-0.5-2.1-0.5h-4.1v3.8H239.2z"/>
</g>
</svg>
