<?xml version="1.0" encoding="utf-8"?>
<!-- Generator: Adobe Illustrator 22.1.0, SVG Export Plug-In . SVG Version: 6.00 Build 0)  -->
<svg version="1.1" id="Layer_1" xmlns="http://www.w3.org/2000/svg" xmlns:xlink="http://www.w3.org/1999/xlink" x="0px" y="0px"
	 viewBox="0 0 400 240" style="enable-background:new 0 0 400 240;" xml:space="preserve">
<g>
	<path d="M159.9,170.3c0.1,5-0.8,9.1-2.5,12.3s-4.1,5.6-7,7.4s-6.3,3-10,3.7s-7.5,1.1-11.4,1.3c-0.2,0.1-0.5,0.1-1,0.1
		c-1.5,4.3-3.2,8.5-5.1,12.7s-4,7.9-6.2,11.2c-2.2,3.2-4.5,5.8-7,7.6s-5,2.4-7.6,1.8h-0.2c-0.2,0-0.4,0-0.5-0.1
		c-1.9-0.6-3.1-1.5-3.5-2.8s-0.5-2.5-0.2-3.7c0.2-1.3,0.7-2.2,1.3-3c0.1-0.1,0.3-0.3,0.5-0.4s0.5-0.1,0.8,0.1
		c0.1,0.1,0.5,0.4,1.1,0.7c1.8,0.7,4.2-0.8,7.1-4.4s5.9-9.4,9.2-17.2c0.2,0,0.3,0,0.3-0.1l-0.2-0.1l0.2-1l0.2-0.7
		c-0.7,0.1-1.6,0.3-2.5,0.6c-1.9,0.6-3.4,1.4-4.5,2.3c-1.1,1-1.8,1.9-2.1,2.8c-0.1,0.2-0.2,0.3-0.3,0.3c-0.2,0-0.3-0.1-0.3-0.2
		c-0.4-0.4-0.8-0.9-1.3-1.5c-0.5-0.7-0.9-1.4-1-2.2c-0.3-1.3,0-2.7,0.9-4.1s2.8-2.3,5.6-2.8c1-0.2,2.2-0.4,3.4-0.4
		c1.2,0,2.6,0,4,0.2c1.7-4.7,3.4-9.5,5-14.2c1.7-4.8,3.4-9.8,5.4-14.9c0-0.1,0.2-0.3,0.6-0.4l8.9,0.4c0.4,0,0.5,0.2,0.4,0.6
		c-0.1,0.6-0.4,1.9-1.1,3.9c-0.7,2-1.5,4.3-2.5,7.1c-1,2.7-2.1,5.6-3.2,8.8c-1.1,3.1-2.2,6.2-3.3,9.1l1.1-0.1
		c2.1-0.1,4.1-0.5,6.2-1.3c2.1-0.8,4-1.8,5.8-3s3.3-2.7,4.6-4.3s2.2-3.3,2.6-5c0.4-1.6,0.5-3.4,0.3-5.3s-0.7-3.7-1.5-5.5
		c-0.9-1.7-2.2-3.3-3.9-4.7s-3.9-2.4-6.5-3.1c-0.4-0.1-0.9-0.3-1.7-0.4c-2.2-0.4-4.5-0.6-6.9-0.5s-4.7,0.4-7,1.1s-4.4,1.7-6.3,3.1
		c-2,1.4-3.5,3.2-4.7,5.4c-2,3.3-2.8,6-2.4,8.2c0.4,2.1,1.3,3.4,2.8,3.6c0.9,0.1,1.6,0,2.1-0.5s0.9-1,1.2-1.5
		c0.2-0.1,0.3-0.3,0.4-0.3c0.2-0.1,0.4,0,0.7,0.1c0.4,0.6,0.8,1.1,1,1.7c0.1,0.3,0.2,0.6,0.2,1c0,1.3-0.3,2.5-0.8,3.4
		c-0.4,0.8-1.2,1.6-2.4,2.2s-2.8,0.8-5,0.6c-1.7-0.3-3.2-1-4.5-2c-1.1-0.9-2.1-2.2-2.9-3.9c-0.9-1.7-1.1-4.2-0.8-7.3
		c0.3-4.3,1.9-8.1,4.8-11.2s6.4-5.5,10.5-7.2s8.6-2.7,13.4-2.9c4.8-0.3,9.3,0.3,13.5,1.5c4.2,1.3,7.7,3.4,10.7,6.3
		C157.7,161.7,159.4,165.6,159.9,170.3z"/>
	<path d="M180.1,211.7c0.7,0.7,1.7,0.4,3-0.9c1.4-1.2,2.8-2.9,4.3-4.9s2.8-4,4-6.2c1.2-2.1,2-3.8,2.5-4.9h2.3
		c-1.6,4.1-3.5,7.8-5.5,10.9c-0.9,1.3-1.9,2.6-2.9,3.9c-1.1,1.3-2.2,2.4-3.4,3.4s-2.5,1.8-3.9,2.3c-1.4,0.6-2.8,0.8-4.3,0.6
		c-0.9,0-1.7-0.2-2.5-0.7c-0.7-0.4-1.3-1-1.8-1.8s-0.9-2-1-3.6c-1,1.4-2.1,2.6-3.4,3.5c-1.1,0.8-2.5,1.5-4,2.2
		c-1.6,0.6-3.3,0.8-5.2,0.4c-1.9-0.3-3.4-1.1-4.5-2.4s-1.7-2.9-1.9-4.9c-0.2-1.9-0.1-4,0.4-6.4s1.4-4.7,2.7-7.2
		c2.5-4.9,5.4-8.4,8.8-10.8s6.9-3.4,10.6-3.4c1.5,0,2.9,0.3,4.1,1c1,0.6,1.9,1.5,2.6,2.8c0.7,1.3,1,3.2,0.8,5.7h3.3
		c0.1,0.1,0.3,0.2,0.5,0.3s0.2,0.4-0.1,0.8c-0.4,1-1.1,2.5-1.9,4.5c-0.8,2-1.6,4-2.3,6.1s-1.2,4.1-1.5,5.9S179.5,211.2,180.1,211.7z
		 M179.2,190.6c-0.1-0.4-0.2-1-0.3-1.7c-0.2-0.7-0.4-1.4-0.8-2s-0.9-1.2-1.5-1.6c-0.7-0.4-1.5-0.6-2.5-0.6c-1.4,0.1-2.7,0.7-3.8,1.8
		s-2.2,2.5-3.1,4c-0.9,1.5-1.7,3.1-2.4,4.6s-1.2,2.7-1.5,3.5c-0.4,0.8-0.8,1.9-1.2,3.3s-0.8,2.7-1,4s-0.3,2.5-0.1,3.6
		c0.1,1.1,0.7,1.8,1.5,2s1.7,0,2.5-0.6c0.9-0.6,1.7-1.4,2.4-2.4s1.4-1.9,1.9-2.9s0.9-1.7,1.1-2.1c0.2-0.4,0.6-1.2,1.1-2.4
		s1-2.5,1.6-3.9s1.1-2.7,1.7-3.9c0.5-1.2,0.9-2.1,1.1-2.5v-0.1c0-0.1,0.1-0.3,0.4-0.3h2.9L179.2,190.6L179.2,190.6z"/>
	<path d="M215.4,194.9c-1.6,4.1-3.5,7.8-5.5,10.9c-0.9,1.3-1.9,2.6-2.9,3.9c-1.1,1.3-2.2,2.4-3.4,3.4s-2.5,1.8-3.9,2.3
		c-1.4,0.6-2.8,0.8-4.3,0.6c-0.3,0-0.6,0-0.9-0.1c-0.3-0.1-0.6-0.2-0.9-0.3c-0.3-0.1-0.7-0.3-1.1-0.6c-0.5-0.4-1-0.8-1.3-1.4
		c-0.1-0.1-0.3-0.3-0.3-0.5c-0.1-0.2-0.2-0.4-0.2-0.5c-0.1-0.1-0.1-0.3-0.1-0.3c-0.4-1.1-0.5-2.3-0.4-3.6s0.2-2.5,0.4-3.6
		c0.3-1.3,0.6-2.6,1-3.9l0.3-1.1l11.4-32.4c0-0.3,0.3-0.5,0.8-0.6h8.5c0.1,0,0.3,0,0.4,0.1c0.1,0.1,0.2,0.3,0.1,0.6
		c-0.4,1-1,2.8-1.8,5.2c-0.9,2.5-1.8,5.3-2.9,8.6s-2.3,6.7-3.5,10.3c-1.3,3.6-2.4,7-3.5,10.2l-1.8,5.1c-0.1,0.3-0.2,0.6-0.2,0.9
		c-0.1,0.3-0.1,0.6-0.2,0.9c-0.1,0.3-0.1,0.6-0.1,1v0.6c0,0.2,0,0.4,0.1,0.4c0,0.4,0.1,0.6,0.3,0.7c0.4,0.4,1,0.4,1.8,0
		s1.6-1.2,2.5-2.2s1.9-2.2,2.9-3.6s1.9-2.8,2.8-4.2c0.9-1.4,1.7-2.7,2.3-3.9c0.7-1.2,1.1-2.2,1.4-2.9L215.4,194.9L215.4,194.9z"/>
	<path d="M272,194.8c-1.6,4.1-3.5,7.8-5.5,10.9c-0.9,1.3-1.9,2.6-2.9,3.9c-1.1,1.3-2.2,2.4-3.4,3.4c-1.2,1-2.5,1.8-3.9,2.3
		c-1.4,0.6-2.8,0.8-4.3,0.6c-0.5,0-1-0.1-1.5-0.3c-0.4-0.1-0.9-0.4-1.4-0.7s-1-0.8-1.3-1.4c-0.6-0.9-0.9-2-0.9-3.2s0.1-2.6,0.3-4
		c0.2-1.5,0.6-3.1,1.1-4.9s1-3.2,1.3-4.3c0.8-2.3,1.3-4,1.6-5.3s0.3-2.2,0.3-2.8c-0.1-0.6-0.2-1-0.4-1.2c-0.2-0.1-0.4-0.2-0.4-0.2
		c-0.5-0.2-1.1,0-1.8,0.6s-1.5,1.6-2.4,2.9s-1.8,2.9-2.8,4.7s-2,3.9-3.2,6.1l-0.4,1c-0.4,0.6-0.7,1.3-1.1,2.2s-0.8,1.8-1.2,2.9
		c-0.1,0.4-0.3,0.7-0.4,1.1c-0.1,0.4-0.3,0.7-0.4,1.1l-1.8,5c-0.1,0.4-0.3,0.6-0.4,0.7c-0.1,0.1-0.3,0.1-0.4,0.2h-1.9
		c-1.6-0.1-2.8-0.6-3.5-1.4s-1.2-1.6-1.4-2.5s-0.3-1.7-0.2-2.5s0.2-1.4,0.4-1.8v-0.1l1.8-4.7l1.8-5.1c0.1-0.3,0.2-0.5,0.2-0.7
		c0.8-2.2,1.3-4,1.5-5.2c0.2-1.3,0.2-2.2,0.1-2.8c-0.1-0.6-0.3-1-0.6-1.2s-0.5-0.3-0.6-0.3c-1.5-0.4-3.4,1.4-5.9,5.2
		c-2.4,3.8-5.1,9-8.1,15.5c-0.5,1.4-0.8,2.8-1,4.1s-0.2,2.2-0.2,2.5s-0.1,0.5-0.2,0.7c-0.2,0.1-0.2,0.1-0.3,0.1c0,0-0.1-0.1-0.2-0.1
		h-0.2c-2.4-0.4-4.1-1.2-5.1-2.5s-1.6-2.7-1.7-4.2c-0.2-1.7,0-3.5,0.5-5.5l7.6-21.8c0-0.1,0.1-0.2,0.2-0.3c0.1-0.1,0.3-0.2,0.6-0.2
		h8.6c0.1,0,0.2,0,0.4,0.1s0.2,0.3,0.1,0.5l-3.8,10.8c1.5-2.1,3-4.2,4.6-6.2s3.3-3.5,5-4.4l0.4-0.2c0.4-0.1,0.7-0.3,1-0.3
		s0.6-0.1,0.9-0.2c1-0.2,2.1-0.2,3.3,0.1c1.5,0.4,2.5,1.1,3.1,2.1s1,2,1.2,2.8s0.3,1.7,0.3,2.5c0,0.9-0.1,1.8-0.3,2.7
		c1.4-2,2.9-3.9,4.4-5.6c1.5-1.8,3-3.1,4.5-3.9c0.1,0,0.3-0.1,0.6-0.2c0.4-0.1,0.7-0.3,0.9-0.3c0.3-0.1,0.5-0.1,0.8-0.2
		c1-0.2,2.1-0.2,3.4,0c1.5,0.4,2.5,1.1,3.1,2.2s1,2,1.2,2.8c0.3,1.3,0.4,2.6,0.2,4c-0.2,1.4-0.5,2.7-0.9,4c-0.7,2.1-1.6,4.4-2.5,6.8
		c-1,2.4-1.7,4.5-2.2,6.1c-0.1,0.3-0.2,0.8-0.3,1.4c-0.1,0.7-0.2,1.3-0.1,2c0.1,0.1,0.1,0.2,0.1,0.4l0.3,0.7c0.4,0.4,1.1,0.4,1.8,0
		c0.8-0.4,1.6-1.2,2.5-2.2s1.9-2.2,2.9-3.6s2-2.7,2.9-4.1s1.7-2.7,2.3-3.9c0.7-1.2,1.1-2.2,1.4-2.9h1.9L272,194.8L272,194.8z"/>
	<path d="M294.4,211.7c0.7,0.7,1.7,0.4,3-0.9c1.4-1.2,2.8-2.9,4.3-4.9s2.8-4,4-6.2c1.2-2.1,2-3.8,2.5-4.9h2.3
		c-1.6,4.1-3.5,7.8-5.5,10.9c-0.9,1.3-1.9,2.6-2.9,3.9c-1.1,1.3-2.2,2.4-3.4,3.4s-2.5,1.8-3.9,2.3c-1.4,0.6-2.8,0.8-4.3,0.6
		c-0.9,0-1.7-0.2-2.5-0.7c-0.7-0.4-1.3-1-1.8-1.8s-0.9-2-1-3.6c-1,1.4-2.1,2.6-3.4,3.5c-1.1,0.8-2.5,1.5-4,2.2s-3.3,0.8-5.2,0.4
		c-1.9-0.3-3.4-1.1-4.5-2.4s-1.7-2.9-1.9-4.9c-0.2-1.9-0.1-4,0.4-6.4s1.4-4.7,2.7-7.2c2.5-4.9,5.4-8.4,8.8-10.8s6.9-3.4,10.6-3.4
		c1.5,0,2.9,0.3,4.1,1c1,0.6,1.9,1.5,2.6,2.8s1,3.2,0.8,5.7h3.3c0.1,0.1,0.3,0.2,0.5,0.3s0.2,0.4-0.1,0.8c-0.4,1-1.1,2.5-1.9,4.5
		s-1.6,4-2.3,6.1s-1.2,4.1-1.5,5.9S293.8,211.2,294.4,211.7z M293.5,190.6c-0.1-0.4-0.2-1-0.3-1.7c-0.2-0.7-0.4-1.4-0.8-2
		s-0.9-1.2-1.5-1.6c-0.7-0.4-1.5-0.6-2.5-0.6c-1.4,0.1-2.7,0.7-3.8,1.8s-2.2,2.5-3.1,4s-1.7,3.1-2.4,4.6c-0.7,1.5-1.2,2.7-1.5,3.5
		c-0.4,0.8-0.8,1.9-1.2,3.3c-0.4,1.4-0.8,2.7-1,4s-0.3,2.5-0.1,3.6c0.1,1.1,0.7,1.8,1.5,2s1.7,0,2.5-0.6c0.9-0.6,1.7-1.4,2.4-2.4
		c0.7-1,1.4-1.9,1.9-2.9s0.9-1.7,1.1-2.1s0.6-1.2,1.1-2.4s1-2.5,1.6-3.9s1.1-2.7,1.7-3.9c0.5-1.2,0.9-2.1,1.1-2.5v-0.1
		c0-0.1,0.1-0.3,0.4-0.3h2.9L293.5,190.6L293.5,190.6z"/>
</g>
<g>
	<path d="M158.4,222.9l-1.3,2.4l-0.3-0.1c0.1-0.3,0.2-0.5,0.2-0.5c0-0.2-0.2-0.4-0.7-0.6c-1.2-0.6-2.6-0.9-3.9-0.9
		c-1.1,0-2.1,0.2-3,0.6c-0.4,0.2-0.7,0.5-1,0.8s-0.4,0.7-0.4,1.1c0,0.3,0.1,0.6,0.3,0.9s0.4,0.5,0.7,0.6c0.3,0.2,0.7,0.3,1.2,0.3
		c0.5,0.1,1.2,0.1,2.2,0.1c1.4,0,2.4,0.1,3,0.2s1.1,0.2,1.5,0.5c1.1,0.6,1.6,1.5,1.6,2.7c0,1.1-0.5,2.1-1.4,2.8
		c-1.1,0.8-2.5,1.2-4.4,1.2c-1.1,0-2-0.1-2.8-0.3s-1.7-0.6-2.9-1.2c-0.3-0.1-0.5-0.2-0.5-0.2c-0.1,0-0.2,0.1-0.4,0.3l-0.3-0.2
		l1.4-2.3l0.3,0.1c-0.1,0.2-0.2,0.4-0.2,0.5c0,0.2,0.4,0.5,1.2,0.9c0.7,0.4,1.4,0.6,2.1,0.8s1.4,0.2,2.1,0.2c1.6,0,2.7-0.3,3.6-1
		c0.5-0.5,0.8-1,0.8-1.6c0-0.8-0.5-1.4-1.4-1.7c-0.3-0.1-0.6-0.2-0.9-0.2c-0.3,0-1.2-0.1-2.7-0.1c-1.1,0-1.9-0.1-2.5-0.2
		s-1.1-0.3-1.6-0.6c-0.4-0.2-0.8-0.6-1-1s-0.4-0.9-0.4-1.5c0-0.9,0.3-1.7,1-2.3c0.5-0.5,1.2-0.8,2-1.1s1.8-0.4,2.9-0.4
		c0.8,0,1.6,0.1,2.4,0.3c0.7,0.2,1.5,0.5,2.5,0.9c0.2,0.1,0.3,0.1,0.4,0.1C157.9,223.2,158.1,223.1,158.4,222.9L158.4,222.9z"/>
	<path d="M167.8,226.3l-2.5,7.1c-0.1,0.3-0.2,0.6-0.2,0.7c0,0.3,0.2,0.4,0.5,0.5v0.3h-2.9v-0.3c0.3-0.1,0.5-0.2,0.5-0.5
		c0-0.2-0.1-0.4-0.2-0.7l-2.8-7.7c-0.1-0.3-0.2-0.6-0.4-0.7c-0.1-0.1-0.3-0.2-0.6-0.3v-0.3h2.7v0.3c-0.4,0.1-0.5,0.3-0.5,0.5
		c0,0.1,0,0.3,0.1,0.5l2.7,7.3l2.6-7.3c0.1-0.2,0.1-0.4,0.1-0.5c0-0.2-0.2-0.4-0.5-0.5v-0.3h2.8v0.3c-0.4,0.1-0.5,0.3-0.5,0.5
		c0,0.1,0,0.3,0.1,0.5l2.7,7.3l2.6-7.3c0.1-0.2,0.1-0.3,0.1-0.5c0-0.3-0.2-0.5-0.6-0.6v-0.3h2.7v0.3c-0.3,0.1-0.5,0.2-0.6,0.3
		s-0.3,0.4-0.4,0.7l-2.8,7.8c-0.1,0.2-0.1,0.4-0.1,0.5c0,0.3,0.2,0.5,0.5,0.5v0.3H170v-0.3c0.3-0.1,0.5-0.2,0.5-0.5
		c0-0.1-0.1-0.4-0.2-0.7L167.8,226.3z"/>
	<path d="M178,233.7v-8.3c0-0.3,0-0.4-0.1-0.5s-0.2-0.2-0.5-0.3v-0.3h2.5v0.3c-0.2,0.1-0.4,0.1-0.5,0.3c-0.1,0.1-0.1,0.3-0.1,0.5
		v8.3c0,0.3,0,0.4,0.1,0.5s0.2,0.2,0.5,0.3v0.3h-2.5v-0.3c0.2-0.1,0.4-0.1,0.5-0.3C177.9,234.2,178,234,178,233.7z"/>
	<path d="M188.2,234.8l-4.4-8.7v7.7c0,0.3,0,0.4,0.1,0.5s0.2,0.2,0.5,0.3v0.3h-2.3v-0.3c0.2-0.1,0.4-0.1,0.5-0.3s0.1-0.3,0.1-0.5
		v-8.3c0-0.3,0-0.4-0.1-0.5s-0.2-0.2-0.5-0.3v-0.3h3.2v0.3c-0.3,0.1-0.5,0.2-0.5,0.4c0,0.1,0.1,0.3,0.2,0.6l3.3,6.6l3.3-6.6
		c0.1-0.3,0.2-0.5,0.2-0.6c0-0.2-0.2-0.3-0.5-0.4v-0.3h3.2v0.3c-0.2,0.1-0.4,0.1-0.5,0.3c-0.1,0.1-0.1,0.3-0.1,0.5v8.3
		c0,0.3,0,0.4,0.1,0.5s0.2,0.2,0.5,0.3v0.3H192v-0.3c0.2-0.1,0.4-0.1,0.5-0.3c0.1-0.1,0.1-0.3,0.1-0.5V226L188.2,234.8z"/>
	<path d="M204.4,226.3l-2.5,7.1c-0.1,0.3-0.2,0.6-0.2,0.7c0,0.3,0.2,0.4,0.5,0.5v0.3h-2.9v-0.3c0.3-0.1,0.5-0.2,0.5-0.5
		c0-0.2-0.1-0.4-0.2-0.7l-2.8-7.7c-0.1-0.3-0.2-0.6-0.4-0.7c-0.1-0.1-0.3-0.2-0.6-0.3v-0.3h2.7v0.3c-0.4,0.1-0.5,0.3-0.5,0.5
		c0,0.1,0,0.3,0.1,0.5l2.7,7.3l2.6-7.3c0.1-0.2,0.1-0.4,0.1-0.5c0-0.2-0.2-0.4-0.5-0.5v-0.3h2.8v0.3c-0.4,0.1-0.5,0.3-0.5,0.5
		c0,0.1,0,0.3,0.1,0.5l2.7,7.3l2.6-7.3c0.1-0.2,0.1-0.3,0.1-0.5c0-0.3-0.2-0.5-0.6-0.6v-0.3h2.7v0.3c-0.3,0.1-0.5,0.2-0.6,0.3
		s-0.3,0.4-0.4,0.7l-2.8,7.8c-0.1,0.2-0.1,0.4-0.1,0.5c0,0.3,0.2,0.5,0.5,0.5v0.3h-2.9v-0.3c0.3-0.1,0.5-0.2,0.5-0.5
		c0-0.1-0.1-0.4-0.2-0.7L204.4,226.3z"/>
	<path d="M216.2,229.9v3.8h6.4c0.3,0,0.4,0,0.6-0.1c0.1-0.1,0.2-0.2,0.2-0.5h0.3v2.2h-0.3c-0.1-0.2-0.1-0.4-0.2-0.5
		c-0.1-0.1-0.3-0.1-0.5-0.1h-8.3v-0.3c0.2-0.1,0.4-0.1,0.5-0.3c0.1-0.1,0.1-0.3,0.1-0.5v-8.3c0-0.3,0-0.4-0.1-0.5s-0.2-0.2-0.5-0.3
		v-0.3h8.3c0.3,0,0.4,0,0.5-0.1s0.2-0.2,0.3-0.5h0.3v2.2h-0.3c-0.1-0.2-0.1-0.4-0.3-0.5c-0.1-0.1-0.3-0.1-0.5-0.1h-6.4v3.5h4
		c0.3,0,0.4,0,0.5-0.1s0.2-0.2,0.3-0.5h0.3v2.2H221c-0.1-0.2-0.1-0.4-0.3-0.5c-0.1-0.1-0.3-0.1-0.5-0.1h-4V229.9z"/>
	<path d="M232.9,231.9h-5.4l-0.8,1.7c-0.1,0.2-0.1,0.4-0.1,0.5c0,0.2,0.2,0.4,0.5,0.4v0.3h-2.6v-0.3c0.2,0,0.4-0.1,0.6-0.3
		c0.1-0.2,0.3-0.4,0.5-0.9l3.4-7.5c0.2-0.4,0.3-0.7,0.3-0.9s-0.2-0.3-0.5-0.4v-0.3h3v0.3c-0.3,0.1-0.5,0.2-0.5,0.4
		c0,0.1,0.1,0.4,0.4,1l3.3,7.2c0.2,0.5,0.4,0.8,0.6,1c0.2,0.2,0.4,0.3,0.6,0.3v0.3h-2.7v-0.3c0.3-0.1,0.4-0.2,0.4-0.3
		s-0.1-0.3-0.2-0.6L232.9,231.9z M232.5,230.9l-2.3-5.1l-2.3,5.1H232.5z"/>
	<path d="M239.2,230.1v3.7c0,0.3,0,0.4,0.1,0.5s0.2,0.2,0.5,0.3v0.3h-2.5v-0.3c0.2-0.1,0.4-0.1,0.5-0.3c0.1-0.1,0.1-0.3,0.1-0.5
		v-8.3c0-0.3,0-0.4-0.1-0.5s-0.2-0.2-0.5-0.3v-0.3h6.2c0.7,0,1.3,0,1.7,0.1s0.8,0.3,1.2,0.5c0.7,0.5,1.1,1.2,1.1,2.2
		c0,0.8-0.3,1.4-0.8,1.9s-1.2,0.7-2.2,0.8l2.6,4.1c0.1,0.1,0.2,0.2,0.3,0.3s0.2,0.1,0.5,0.1v0.3h-2.6v-0.3c0.2,0,0.4-0.1,0.4-0.2
		s-0.1-0.2-0.2-0.4l-2.4-3.8L239.2,230.1L239.2,230.1z M239.2,229.1h3.9c0.6,0,1.1,0,1.4-0.1c0.3,0,0.6-0.1,0.8-0.3
		c0.5-0.3,0.7-0.7,0.7-1.4c0-0.6-0.2-1.1-0.7-1.5c-0.4-0.3-1.1-0.5-2.1-0.5h-4.1v3.8H239.2z"/>
</g>
<path d="M3.9,143.8h17.6l12.1-15l-0.8,15h11.9l8.7-13.1l0.8,13.1h12.7l6.5-8.4l1.9,8.4h30l4-7.1v7.1h19.7l3.3-6.1v6.1h58.3
	C190.5,143.8,34.8,56.6,3.9,143.8z"/>
<path d="M378,143.8h17.6c-30.9-87.2-186.6,0-186.6,0h58.3v-6.1l3.3,6.1h19.7v-7.1l4,7.1h30l1.9-8.4l6.5,8.4h12.7l0.8-13.1l8.7,13.1
	h11.9l-0.8-15L378,143.8z"/>
<path d="M64.9,11.3l12.6,12.6l19.1-2.1l-11.2,10l8.4,8.4l15.4-3.1l-8.7,9.8l9,9l10.5-1.2l-4.6,7.1l21.3,21.3l7.7-2.2l-5,4.9
	l13.9,13.9l6.5-1.9l-4.2,4.2l41.2,41.2C196.9,143.3,148.5-28.4,64.9,11.3z"/>
<path d="M238.2,97.5l6.7,1.9l13.9-13.9l-5.1-5l7.9,2.2l21.2-21.2l-4.6-7.2l10.6,1.2l8.9-8.9l-8.7-9.9l15.4,3.2l8.4-8.4l-11.2-10.1
	l19.2,2.1L333.3,11c-83.6-39.7-132,132-132,132l41.2-41.2L238.2,97.5z"/>
</svg>
